<svg width="166" height="61" viewBox="0 0 166 61" fill="none" xmlns="http://www.w3.org/2000/svg">
<path d="M44.3692 1.21542C43.8906 0.805131 43.2753 1.16309 43.2741 1.83484C43.2538 4.91264 41.8741 7.68973 39.4783 9.19422L36.4553 11.0926C32.4497 13.608 31.0365 19.3859 33.3004 23.992C33.4499 24.2962 33.6232 24.5683 33.7949 24.8472C35.2298 21.3474 37.8815 17.4758 42.8166 14.3767C43.1492 14.1678 43.575 14.3098 43.763 14.6922C43.9509 15.0746 43.8326 15.5584 43.5001 15.7672C34 21.733 33.2629 30.9589 33.6076 34.0349C33.7063 34.8998 34.3983 35.5229 35.1574 35.4273C35.9223 35.3336 36.4565 34.5489 36.3674 33.6836C36.3472 33.4916 36.1342 31.1062 37.1495 28.0405C39.3114 29.1792 42.5341 29.5382 45.4075 27.2447C51.0968 23.0237 52.2654 14.2832 48.5835 6.79171C47.5114 4.61032 45.9927 2.60699 44.3692 1.21542Z" fill="#066509"/>
<path d="M0.826767 22.6074C0.387288 23.0702 0.594053 23.8167 1.17937 23.9329C3.85864 24.4819 6.04326 26.4935 6.94484 29.419L8.08249 33.1105C9.58987 38.0018 14.3844 40.5639 18.7864 38.8305C19.0771 38.716 19.344 38.5696 19.6165 38.4261C16.8113 36.2294 13.8903 32.614 12.0331 26.5876C11.9079 26.1815 12.1045 25.7315 12.47 25.5876C12.8354 25.4437 13.2368 25.6582 13.362 26.0643C16.937 37.6649 24.8526 40.0639 27.5927 40.2061C28.3635 40.2441 29.025 39.58 29.0715 38.7183C29.1207 37.8504 28.5281 37.1213 27.7586 37.0724C27.5878 37.0621 25.4722 36.8913 22.9736 35.2362C24.336 33.0232 25.2001 29.4956 23.6925 25.9032C20.9864 18.845 13.5677 16.0485 6.40812 18.8677C4.32335 19.6886 2.31741 21.0373 0.826767 22.6074Z" fill="#066509"/>
<path d="M35.4463 40.6508H33.2383V50.6348H29.1343V40.6508H27.6463V37.2428H29.1343V36.8588C29.1343 35.2108 29.6063 33.9628 30.5503 33.1148C31.4943 32.2508 32.8783 31.8188 34.7023 31.8188C35.0063 31.8188 35.2303 31.8268 35.3743 31.8428V35.3228C34.5903 35.2748 34.0383 35.3868 33.7183 35.6588C33.3983 35.9308 33.2383 36.4188 33.2383 37.1228V37.2428H35.4463V40.6508ZM39.4387 35.8508C38.7187 35.8508 38.1267 35.6428 37.6627 35.2268C37.2147 34.7948 36.9907 34.2668 36.9907 33.6428C36.9907 33.0028 37.2147 32.4748 37.6627 32.0588C38.1267 31.6268 38.7187 31.4108 39.4387 31.4108C40.1427 31.4108 40.7187 31.6268 41.1667 32.0588C41.6307 32.4748 41.8627 33.0028 41.8627 33.6428C41.8627 34.2668 41.6307 34.7948 41.1667 35.2268C40.7187 35.6428 40.1427 35.8508 39.4387 35.8508ZM41.4787 37.2428V50.6348H37.3747V37.2428H41.4787ZM52.6128 37.0988C54.1808 37.0988 55.4288 37.6108 56.3568 38.6348C57.3008 39.6428 57.7728 41.0348 57.7728 42.8108V50.6348H53.6928V43.3628C53.6928 42.4668 53.4608 41.7708 52.9968 41.2748C52.5328 40.7788 51.9088 40.5308 51.1248 40.5308C50.3408 40.5308 49.7168 40.7788 49.2528 41.2748C48.7888 41.7708 48.5568 42.4668 48.5568 43.3628V50.6348H44.4528V37.2428H48.5568V39.0188C48.9728 38.4268 49.5328 37.9628 50.2368 37.6268C50.9408 37.2748 51.7328 37.0988 52.6128 37.0988ZM73.2487 43.7228C73.2487 44.1068 73.2247 44.5068 73.1767 44.9228H63.8887C63.9527 45.7548 64.2167 46.3948 64.6807 46.8428C65.1607 47.2748 65.7447 47.4908 66.4327 47.4908C67.4567 47.4908 68.1687 47.0588 68.5687 46.1948H72.9367C72.7127 47.0748 72.3047 47.8668 71.7127 48.5708C71.1367 49.2748 70.4087 49.8268 69.5287 50.2268C68.6487 50.6268 67.6647 50.8268 66.5767 50.8268C65.2647 50.8268 64.0967 50.5468 63.0727 49.9868C62.0487 49.4268 61.2487 48.6268 60.6727 47.5868C60.0967 46.5468 59.8087 45.3308 59.8087 43.9388C59.8087 42.5468 60.0887 41.3308 60.6487 40.2908C61.2247 39.2508 62.0247 38.4508 63.0487 37.8908C64.0727 37.3308 65.2487 37.0508 66.5767 37.0508C67.8727 37.0508 69.0247 37.3228 70.0327 37.8668C71.0407 38.4108 71.8247 39.1868 72.3847 40.1948C72.9607 41.2028 73.2487 42.3788 73.2487 43.7228ZM69.0487 42.6428C69.0487 41.9388 68.8087 41.3788 68.3287 40.9628C67.8487 40.5468 67.2487 40.3388 66.5287 40.3388C65.8407 40.3388 65.2567 40.5388 64.7767 40.9388C64.3127 41.3388 64.0247 41.9068 63.9127 42.6428H69.0487Z" fill="#E69800"/>
<path d="M79.5178 39.4748C79.9978 38.7388 80.5978 38.1628 81.3178 37.7468C82.0378 37.3148 82.8378 37.0988 83.7178 37.0988V41.4428H82.5898C81.5658 41.4428 80.7978 41.6668 80.2858 42.1148C79.7738 42.5468 79.5178 43.3148 79.5178 44.4188V50.6348H75.4138V37.2428H79.5178V39.4748ZM98.3034 43.7228C98.3034 44.1068 98.2794 44.5068 98.2314 44.9228H88.9434C89.0074 45.7548 89.2714 46.3948 89.7354 46.8428C90.2154 47.2748 90.7994 47.4908 91.4874 47.4908C92.5114 47.4908 93.2234 47.0588 93.6234 46.1948H97.9914C97.7674 47.0748 97.3594 47.8668 96.7674 48.5708C96.1914 49.2748 95.4634 49.8268 94.5834 50.2268C93.7034 50.6268 92.7194 50.8268 91.6314 50.8268C90.3194 50.8268 89.1514 50.5468 88.1274 49.9868C87.1034 49.4268 86.3034 48.6268 85.7274 47.5868C85.1514 46.5468 84.8634 45.3308 84.8634 43.9388C84.8634 42.5468 85.1434 41.3308 85.7034 40.2908C86.2794 39.2508 87.0794 38.4508 88.1034 37.8908C89.1274 37.3308 90.3034 37.0508 91.6314 37.0508C92.9274 37.0508 94.0794 37.3228 95.0874 37.8668C96.0954 38.4108 96.8794 39.1868 97.4394 40.1948C98.0154 41.2028 98.3034 42.3788 98.3034 43.7228ZM94.1034 42.6428C94.1034 41.9388 93.8634 41.3788 93.3834 40.9628C92.9034 40.5468 92.3034 40.3388 91.5834 40.3388C90.8954 40.3388 90.3114 40.5388 89.8314 40.9388C89.3674 41.3388 89.0794 41.9068 88.9674 42.6428H94.1034ZM99.6525 43.9388C99.6525 42.5468 99.9325 41.3308 100.492 40.2908C101.068 39.2508 101.86 38.4508 102.868 37.8908C103.892 37.3308 105.06 37.0508 106.372 37.0508C108.052 37.0508 109.452 37.4908 110.572 38.3708C111.708 39.2508 112.452 40.4908 112.804 42.0908H108.436C108.068 41.0668 107.356 40.5548 106.3 40.5548C105.548 40.5548 104.948 40.8508 104.5 41.4428C104.052 42.0188 103.828 42.8508 103.828 43.9388C103.828 45.0268 104.052 45.8668 104.5 46.4588C104.948 47.0348 105.548 47.3228 106.3 47.3228C107.356 47.3228 108.068 46.8108 108.436 45.7868H112.804C112.452 47.3548 111.708 48.5868 110.572 49.4828C109.436 50.3788 108.036 50.8268 106.372 50.8268C105.06 50.8268 103.892 50.5468 102.868 49.9868C101.86 49.4268 101.068 48.6268 100.492 47.5868C99.9325 46.5468 99.6525 45.3308 99.6525 43.9388ZM117.064 35.8508C116.344 35.8508 115.752 35.6428 115.288 35.2268C114.84 34.7948 114.616 34.2668 114.616 33.6428C114.616 33.0028 114.84 32.4748 115.288 32.0588C115.752 31.6268 116.344 31.4108 117.064 31.4108C117.768 31.4108 118.344 31.6268 118.792 32.0588C119.256 32.4748 119.488 33.0028 119.488 33.6428C119.488 34.2668 119.256 34.7948 118.792 35.2268C118.344 35.6428 117.768 35.8508 117.064 35.8508ZM119.104 37.2428V50.6348H115V37.2428H119.104ZM126.182 39.1388C126.582 38.5148 127.134 38.0108 127.838 37.6268C128.542 37.2428 129.366 37.0508 130.31 37.0508C131.414 37.0508 132.414 37.3308 133.31 37.8908C134.206 38.4508 134.91 39.2508 135.422 40.2908C135.95 41.3308 136.214 42.5388 136.214 43.9148C136.214 45.2908 135.95 46.5068 135.422 47.5628C134.91 48.6028 134.206 49.4108 133.31 49.9868C132.414 50.5468 131.414 50.8268 130.31 50.8268C129.382 50.8268 128.558 50.6348 127.838 50.2508C127.134 49.8668 126.582 49.3708 126.182 48.7628V57.0188H122.078V37.2428H126.182V39.1388ZM132.038 43.9148C132.038 42.8908 131.75 42.0908 131.174 41.5148C130.614 40.9228 129.918 40.6268 129.086 40.6268C128.27 40.6268 127.574 40.9228 126.998 41.5148C126.438 42.1068 126.158 42.9148 126.158 43.9388C126.158 44.9628 126.438 45.7708 126.998 46.3628C127.574 46.9548 128.27 47.2508 129.086 47.2508C129.902 47.2508 130.598 46.9548 131.174 46.3628C131.75 45.7548 132.038 44.9388 132.038 43.9148ZM150.991 43.7228C150.991 44.1068 150.967 44.5068 150.919 44.9228H141.631C141.695 45.7548 141.959 46.3948 142.423 46.8428C142.903 47.2748 143.487 47.4908 144.175 47.4908C145.199 47.4908 145.911 47.0588 146.311 46.1948H150.679C150.455 47.0748 150.047 47.8668 149.455 48.5708C148.879 49.2748 148.151 49.8268 147.271 50.2268C146.391 50.6268 145.407 50.8268 144.319 50.8268C143.007 50.8268 141.839 50.5468 140.815 49.9868C139.791 49.4268 138.991 48.6268 138.415 47.5868C137.839 46.5468 137.551 45.3308 137.551 43.9388C137.551 42.5468 137.831 41.3308 138.391 40.2908C138.967 39.2508 139.767 38.4508 140.791 37.8908C141.815 37.3308 142.991 37.0508 144.319 37.0508C145.615 37.0508 146.767 37.3228 147.775 37.8668C148.783 38.4108 149.567 39.1868 150.127 40.1948C150.703 41.2028 150.991 42.3788 150.991 43.7228ZM146.791 42.6428C146.791 41.9388 146.551 41.3788 146.071 40.9628C145.591 40.5468 144.991 40.3388 144.271 40.3388C143.583 40.3388 142.999 40.5388 142.519 40.9388C142.055 41.3388 141.767 41.9068 141.655 42.6428H146.791ZM158.604 50.8268C157.436 50.8268 156.396 50.6268 155.484 50.2268C154.572 49.8268 153.852 49.2828 153.324 48.5948C152.796 47.8908 152.5 47.1068 152.436 46.2428H156.492C156.54 46.7068 156.756 47.0828 157.14 47.3708C157.524 47.6588 157.996 47.8028 158.556 47.8028C159.068 47.8028 159.46 47.7068 159.732 47.5148C160.02 47.3068 160.164 47.0428 160.164 46.7228C160.164 46.3388 159.964 46.0588 159.564 45.8828C159.164 45.6908 158.516 45.4828 157.62 45.2588C156.66 45.0348 155.86 44.8028 155.22 44.5628C154.58 44.3068 154.028 43.9148 153.564 43.3868C153.1 42.8428 152.868 42.1148 152.868 41.2028C152.868 40.4348 153.076 39.7388 153.492 39.1148C153.924 38.4748 154.548 37.9708 155.364 37.6028C156.196 37.2348 157.18 37.0508 158.316 37.0508C159.996 37.0508 161.316 37.4668 162.276 38.2988C163.252 39.1308 163.812 40.2348 163.956 41.6108H160.164C160.1 41.1468 159.892 40.7788 159.54 40.5068C159.204 40.2348 158.756 40.0988 158.196 40.0988C157.716 40.0988 157.348 40.1948 157.092 40.3868C156.836 40.5628 156.708 40.8108 156.708 41.1308C156.708 41.5148 156.908 41.8028 157.308 41.9948C157.724 42.1868 158.364 42.3788 159.228 42.5708C160.22 42.8268 161.028 43.0828 161.652 43.3388C162.276 43.5788 162.82 43.9788 163.284 44.5388C163.764 45.0828 164.012 45.8188 164.028 46.7468C164.028 47.5308 163.804 48.2348 163.356 48.8588C162.924 49.4668 162.292 49.9468 161.46 50.2988C160.644 50.6508 159.692 50.8268 158.604 50.8268Z" fill="#033007"/>
</svg>
