<svg width="126" height="50" viewBox="0 0 126 50" fill="none" xmlns="http://www.w3.org/2000/svg">
<path d="M33.1443 0.843883C32.7868 0.537393 32.3272 0.804791 32.3263 1.3066C32.3111 3.60577 31.2805 5.68029 29.4908 6.80417L27.2325 8.22231C24.2403 10.1014 23.1847 14.4175 24.8758 17.8583C24.9875 18.0856 25.1169 18.2889 25.2452 18.4972C26.3171 15.8828 28.2979 12.9906 31.9846 10.6755C32.233 10.5195 32.5511 10.6256 32.6915 10.9113C32.8319 11.1969 32.7435 11.5583 32.4951 11.7143C25.3984 16.1708 24.8478 23.0627 25.1053 25.3605C25.179 26.0066 25.696 26.4721 26.263 26.4006C26.8344 26.3307 27.2334 25.7445 27.1669 25.0981C27.1518 24.9546 26.9927 23.1727 27.7511 20.8826C29.3661 21.7333 31.7735 22.0014 33.92 20.2881C38.17 17.135 39.0429 10.6057 36.2925 5.00945C35.4916 3.37992 34.3571 1.88341 33.1443 0.843883V0.843883Z" fill="#066509"/>
<path d="M0.619107 16.824C0.290809 17.1697 0.445265 17.7273 0.88251 17.8141C2.88396 18.2243 4.5159 19.727 5.1894 21.9124L6.03924 24.67C7.16527 28.3239 10.7468 30.2378 14.0352 28.9429C14.2524 28.8574 14.4518 28.748 14.6553 28.6408C12.5598 26.9998 10.3777 24.2991 8.99036 19.7973C8.89688 19.4939 9.04376 19.1578 9.31676 19.0503C9.58977 18.9428 9.88962 19.103 9.9831 19.4064C12.6537 28.0722 18.5668 29.8643 20.6137 29.9705C21.1895 29.9989 21.6836 29.5028 21.7183 28.8591C21.7551 28.2107 21.3124 27.6661 20.7376 27.6296C20.61 27.6219 19.0296 27.4943 17.1631 26.2579C18.1809 24.6048 18.8263 21.9696 17.7001 19.286C15.6787 14.0134 10.1368 11.9244 4.78846 14.0304C3.23111 14.6436 1.73264 15.6511 0.619107 16.824V16.824Z" fill="#066509"/>
<path d="M27.3962 35.0613H25.7402V42.5493H22.6622V35.0613H21.5462V32.5053H22.6622V32.2173C22.6622 30.9813 23.0162 30.0453 23.7242 29.4093C24.4322 28.7613 25.4702 28.4373 26.8382 28.4373C27.0662 28.4373 27.2342 28.4433 27.3422 28.4553V31.0653C26.7542 31.0293 26.3402 31.1133 26.1002 31.3173C25.8602 31.5213 25.7402 31.8873 25.7402 32.4153V32.5053H27.3962V35.0613ZM30.3906 31.4613C29.8506 31.4613 29.4066 31.3053 29.0586 30.9933C28.7226 30.6693 28.5546 30.2733 28.5546 29.8053C28.5546 29.3253 28.7226 28.9293 29.0586 28.6173C29.4066 28.2933 29.8506 28.1313 30.3906 28.1313C30.9186 28.1313 31.3506 28.2933 31.6866 28.6173C32.0346 28.9293 32.2086 29.3253 32.2086 29.8053C32.2086 30.2733 32.0346 30.6693 31.6866 30.9933C31.3506 31.3053 30.9186 31.4613 30.3906 31.4613ZM31.9206 32.5053V42.5493H28.8426V32.5053H31.9206ZM40.2712 32.3973C41.4472 32.3973 42.3832 32.7813 43.0792 33.5493C43.7872 34.3053 44.1412 35.3493 44.1412 36.6813V42.5493H41.0812V37.0953C41.0812 36.4233 40.9072 35.9013 40.5592 35.5293C40.2112 35.1573 39.7432 34.9713 39.1552 34.9713C38.5672 34.9713 38.0992 35.1573 37.7512 35.5293C37.4032 35.9013 37.2292 36.4233 37.2292 37.0953V42.5493H34.1512V32.5053H37.2292V33.8373C37.5412 33.3933 37.9612 33.0453 38.4892 32.7933C39.0172 32.5293 39.6112 32.3973 40.2712 32.3973ZM55.7481 37.3653C55.7481 37.6533 55.7301 37.9533 55.6941 38.2653H48.7281C48.7761 38.8893 48.9741 39.3693 49.3221 39.7053C49.6821 40.0293 50.1201 40.1913 50.6361 40.1913C51.4041 40.1913 51.9381 39.8673 52.2381 39.2193H55.5141C55.3461 39.8793 55.0401 40.4733 54.5961 41.0013C54.1641 41.5293 53.6181 41.9433 52.9581 42.2433C52.2981 42.5433 51.5601 42.6933 50.7441 42.6933C49.7601 42.6933 48.8841 42.4833 48.1161 42.0633C47.3481 41.6433 46.7481 41.0433 46.3161 40.2633C45.8841 39.4833 45.6681 38.5713 45.6681 37.5273C45.6681 36.4833 45.8781 35.5713 46.2981 34.7913C46.7301 34.0113 47.3301 33.4113 48.0981 32.9913C48.8661 32.5713 49.7481 32.3613 50.7441 32.3613C51.7161 32.3613 52.5801 32.5653 53.3361 32.9733C54.0921 33.3813 54.6801 33.9633 55.1001 34.7193C55.5321 35.4753 55.7481 36.3573 55.7481 37.3653ZM52.5981 36.5553C52.5981 36.0273 52.4181 35.6073 52.0581 35.2953C51.6981 34.9833 51.2481 34.8273 50.7081 34.8273C50.1921 34.8273 49.7541 34.9773 49.3941 35.2773C49.0461 35.5773 48.8301 36.0033 48.7461 36.5553H52.5981Z" fill="#E69800"/>
<path d="M60.4499 34.1793C60.8099 33.6273 61.2599 33.1953 61.7999 32.8833C62.3399 32.5593 62.9399 32.3973 63.5999 32.3973V35.6553H62.7539C61.9859 35.6553 61.4099 35.8233 61.0259 36.1593C60.6419 36.4833 60.4499 37.0593 60.4499 37.8873V42.5493H57.3719V32.5053H60.4499V34.1793ZM74.5391 37.3653C74.5391 37.6533 74.5211 37.9533 74.4851 38.2653H67.5191C67.5671 38.8893 67.7651 39.3693 68.1131 39.7053C68.4731 40.0293 68.9111 40.1913 69.4271 40.1913C70.1951 40.1913 70.7291 39.8673 71.0291 39.2193H74.3051C74.1371 39.8793 73.8311 40.4733 73.3871 41.0013C72.9551 41.5293 72.4091 41.9433 71.7491 42.2433C71.0891 42.5433 70.3511 42.6933 69.5351 42.6933C68.5511 42.6933 67.6751 42.4833 66.9071 42.0633C66.1391 41.6433 65.5391 41.0433 65.1071 40.2633C64.6751 39.4833 64.4591 38.5713 64.4591 37.5273C64.4591 36.4833 64.6691 35.5713 65.0891 34.7913C65.5211 34.0113 66.1211 33.4113 66.8891 32.9913C67.6571 32.5713 68.5391 32.3613 69.5351 32.3613C70.5071 32.3613 71.3711 32.5653 72.1271 32.9733C72.8831 33.3813 73.4711 33.9633 73.8911 34.7193C74.3231 35.4753 74.5391 36.3573 74.5391 37.3653ZM71.3891 36.5553C71.3891 36.0273 71.2091 35.6073 70.8491 35.2953C70.4891 34.9833 70.0391 34.8273 69.4991 34.8273C68.9831 34.8273 68.5451 34.9773 68.1851 35.2773C67.8371 35.5773 67.6211 36.0033 67.5371 36.5553H71.3891ZM75.5509 37.5273C75.5509 36.4833 75.7609 35.5713 76.1809 34.7913C76.6129 34.0113 77.2069 33.4113 77.9629 32.9913C78.7309 32.5713 79.6069 32.3613 80.5909 32.3613C81.8509 32.3613 82.9009 32.6913 83.7409 33.3513C84.5929 34.0113 85.1509 34.9413 85.4149 36.1413H82.1389C81.8629 35.3733 81.3289 34.9893 80.5369 34.9893C79.9729 34.9893 79.5229 35.2113 79.1869 35.6553C78.8509 36.0873 78.6829 36.7113 78.6829 37.5273C78.6829 38.3433 78.8509 38.9733 79.1869 39.4173C79.5229 39.8493 79.9729 40.0653 80.5369 40.0653C81.3289 40.0653 81.8629 39.6813 82.1389 38.9133H85.4149C85.1509 40.0893 84.5929 41.0133 83.7409 41.6853C82.8889 42.3573 81.8389 42.6933 80.5909 42.6933C79.6069 42.6933 78.7309 42.4833 77.9629 42.0633C77.2069 41.6433 76.6129 41.0433 76.1809 40.2633C75.7609 39.4833 75.5509 38.5713 75.5509 37.5273ZM88.6093 31.4613C88.0693 31.4613 87.6253 31.3053 87.2773 30.9933C86.9413 30.6693 86.7733 30.2733 86.7733 29.8053C86.7733 29.3253 86.9413 28.9293 87.2773 28.6173C87.6253 28.2933 88.0693 28.1313 88.6093 28.1313C89.1373 28.1313 89.5693 28.2933 89.9053 28.6173C90.2533 28.9293 90.4273 29.3253 90.4273 29.8053C90.4273 30.2733 90.2533 30.6693 89.9053 30.9933C89.5693 31.3053 89.1373 31.4613 88.6093 31.4613ZM90.1393 32.5053V42.5493H87.0613V32.5053H90.1393ZM95.4479 33.9273C95.7479 33.4593 96.1619 33.0813 96.6899 32.7933C97.2179 32.5053 97.8359 32.3613 98.5439 32.3613C99.3719 32.3613 100.122 32.5713 100.794 32.9913C101.466 33.4113 101.994 34.0113 102.378 34.7913C102.774 35.5713 102.972 36.4773 102.972 37.5093C102.972 38.5413 102.774 39.4533 102.378 40.2453C101.994 41.0253 101.466 41.6313 100.794 42.0633C100.122 42.4833 99.3719 42.6933 98.5439 42.6933C97.8479 42.6933 97.2299 42.5493 96.6899 42.2613C96.1619 41.9733 95.7479 41.6013 95.4479 41.1453V47.3373H92.3699V32.5053H95.4479V33.9273ZM99.8399 37.5093C99.8399 36.7413 99.6239 36.1413 99.1919 35.7093C98.7719 35.2653 98.2499 35.0433 97.6259 35.0433C97.0139 35.0433 96.4919 35.2653 96.0599 35.7093C95.6399 36.1533 95.4299 36.7593 95.4299 37.5273C95.4299 38.2953 95.6399 38.9013 96.0599 39.3453C96.4919 39.7893 97.0139 40.0113 97.6259 40.0113C98.2379 40.0113 98.7599 39.7893 99.1919 39.3453C99.6239 38.8893 99.8399 38.2773 99.8399 37.5093ZM114.055 37.3653C114.055 37.6533 114.037 37.9533 114.001 38.2653H107.035C107.083 38.8893 107.281 39.3693 107.629 39.7053C107.989 40.0293 108.427 40.1913 108.943 40.1913C109.711 40.1913 110.245 39.8673 110.545 39.2193H113.821C113.653 39.8793 113.347 40.4733 112.903 41.0013C112.471 41.5293 111.925 41.9433 111.265 42.2433C110.605 42.5433 109.867 42.6933 109.051 42.6933C108.067 42.6933 107.191 42.4833 106.423 42.0633C105.655 41.6433 105.055 41.0433 104.623 40.2633C104.191 39.4833 103.975 38.5713 103.975 37.5273C103.975 36.4833 104.185 35.5713 104.605 34.7913C105.037 34.0113 105.637 33.4113 106.405 32.9913C107.173 32.5713 108.055 32.3613 109.051 32.3613C110.023 32.3613 110.887 32.5653 111.643 32.9733C112.399 33.3813 112.987 33.9633 113.407 34.7193C113.839 35.4753 114.055 36.3573 114.055 37.3653ZM110.905 36.5553C110.905 36.0273 110.725 35.6073 110.365 35.2953C110.005 34.9833 109.555 34.8273 109.015 34.8273C108.499 34.8273 108.061 34.9773 107.701 35.2773C107.353 35.5773 107.137 36.0033 107.053 36.5553H110.905ZM119.765 42.6933C118.889 42.6933 118.109 42.5433 117.425 42.2433C116.741 41.9433 116.201 41.5353 115.805 41.0193C115.409 40.4913 115.187 39.9033 115.139 39.2553H118.181C118.217 39.6033 118.379 39.8853 118.667 40.1013C118.955 40.3173 119.309 40.4253 119.729 40.4253C120.113 40.4253 120.407 40.3533 120.611 40.2093C120.827 40.0533 120.935 39.8553 120.935 39.6153C120.935 39.3273 120.785 39.1173 120.485 38.9853C120.185 38.8413 119.699 38.6853 119.027 38.5173C118.307 38.3493 117.707 38.1753 117.227 37.9953C116.747 37.8033 116.333 37.5093 115.985 37.1133C115.637 36.7053 115.463 36.1593 115.463 35.4753C115.463 34.8993 115.619 34.3773 115.931 33.9093C116.255 33.4293 116.723 33.0513 117.335 32.7753C117.959 32.4993 118.697 32.3613 119.549 32.3613C120.809 32.3613 121.799 32.6733 122.519 33.2973C123.251 33.9213 123.671 34.7493 123.779 35.7813H120.935C120.887 35.4333 120.731 35.1573 120.467 34.9533C120.215 34.7493 119.879 34.6473 119.459 34.6473C119.099 34.6473 118.823 34.7193 118.631 34.8633C118.439 34.9953 118.343 35.1813 118.343 35.4213C118.343 35.7093 118.493 35.9253 118.793 36.0693C119.105 36.2133 119.585 36.3573 120.233 36.5013C120.977 36.6933 121.583 36.8853 122.051 37.0773C122.519 37.2573 122.927 37.5573 123.275 37.9773C123.635 38.3853 123.821 38.9373 123.833 39.6333C123.833 40.2213 123.665 40.7493 123.329 41.2173C123.005 41.6733 122.531 42.0333 121.907 42.2973C121.295 42.5613 120.581 42.6933 119.765 42.6933Z" fill="#033007"/>
</svg>
